<?xml version="1.0" encoding="UTF-8"?>
<svg xmlns="http://www.w3.org/2000/svg" xmlns:xlink="http://www.w3.org/1999/xlink" width="1200pt" height="1200pt" viewBox="0 0 1200 1200" version="1.1">
<g id="surface1">
<rect x="0" y="0" width="1200" height="1200" style="fill:rgb(100%,99.607843%,98.823529%);fill-opacity:1;stroke:none;"/>
<path style="fill:none;stroke-width:80;stroke-linecap:round;stroke-linejoin:miter;stroke:rgb(0%,0%,0%);stroke-opacity:1;stroke-miterlimit:10;" d="M 0.000377822 -217.83058 L 0.000882216 217.830909 " transform="matrix(0.96771,-0.252067,0.252067,0.96771,173.333333,600)"/>
<path style=" stroke:none;fill-rule:nonzero;fill:rgb(100%,99.607843%,98.823529%);fill-opacity:1;" d="M 139.070312 383.824219 C 142.039062 395.226562 135.203125 406.878906 123.804688 409.847656 C 112.402344 412.816406 100.75 405.980469 97.78125 394.582031 C 94.8125 383.179688 101.644531 371.527344 113.046875 368.558594 C 124.449219 365.589844 136.101562 372.425781 139.070312 383.824219 "/>
<path style=" stroke:none;fill-rule:nonzero;fill:rgb(100%,99.607843%,98.823529%);fill-opacity:1;" d="M 248.886719 805.417969 C 251.855469 816.820312 245.019531 828.472656 233.617188 831.441406 C 222.21875 834.410156 210.566406 827.574219 207.597656 816.175781 C 204.625 804.773438 211.460938 793.121094 222.863281 790.152344 C 234.265625 787.183594 245.914062 794.019531 248.886719 805.417969 "/>
<path style="fill:none;stroke-width:80;stroke-linecap:round;stroke-linejoin:miter;stroke:rgb(0%,0%,0%);stroke-opacity:1;stroke-miterlimit:10;" d="M -0.0011921 -274.847859 L 0.0011921 274.847859 " transform="matrix(0.96771,-0.252067,0.252067,0.96771,280,600)"/>
<path style=" stroke:none;fill-rule:nonzero;fill:rgb(100%,99.607843%,98.823529%);fill-opacity:1;" d="M 231.363281 328.648438 C 234.335938 340.050781 227.5 351.703125 216.097656 354.671875 C 204.695312 357.640625 193.046875 350.804688 190.074219 339.40625 C 187.105469 328.003906 193.941406 316.351562 205.34375 313.382812 C 216.746094 310.414062 228.394531 317.25 231.363281 328.648438 "/>
<path style=" stroke:none;fill-rule:nonzero;fill:rgb(100%,99.607843%,98.823529%);fill-opacity:1;" d="M 369.925781 860.59375 C 372.894531 871.996094 366.058594 883.648438 354.65625 886.617188 C 343.253906 889.585938 331.605469 882.75 328.636719 871.351562 C 325.664062 859.949219 332.5 848.296875 343.902344 845.328125 C 355.304688 842.359375 366.953125 849.195312 369.925781 860.59375 "/>
<path style="fill:none;stroke-width:80;stroke-linecap:round;stroke-linejoin:miter;stroke:rgb(0%,0%,0%);stroke-opacity:1;stroke-miterlimit:10;" d="M 0.000999534 -339.085621 L -0.00225957 339.085293 " transform="matrix(0.96771,-0.252067,0.252067,0.96771,386.666667,600)"/>
<path style=" stroke:none;fill-rule:nonzero;fill:rgb(100%,99.607843%,98.823529%);fill-opacity:1;" d="M 321.839844 266.488281 C 324.808594 277.890625 317.972656 289.539062 306.570312 292.507812 C 295.171875 295.480469 283.519531 288.644531 280.550781 277.242188 C 277.582031 265.839844 284.414062 254.191406 295.816406 251.21875 C 307.21875 248.25 318.871094 255.085938 321.839844 266.488281 "/>
<path style=" stroke:none;fill-rule:nonzero;fill:rgb(100%,99.607843%,98.823529%);fill-opacity:1;" d="M 492.78125 922.757812 C 495.753906 934.160156 488.917969 945.808594 477.515625 948.78125 C 466.113281 951.75 454.464844 944.914062 451.492188 933.511719 C 448.523438 922.109375 455.359375 910.460938 466.761719 907.492188 C 478.164062 904.519531 489.8125 911.355469 492.78125 922.757812 "/>
<path style="fill:none;stroke-width:80;stroke-linecap:round;stroke-linejoin:miter;stroke:rgb(0%,0%,0%);stroke-opacity:1;stroke-miterlimit:10;" d="M -0.00109189 -408.281435 L -0.00142819 408.280779 " transform="matrix(0.96771,-0.252067,0.252067,0.96771,493.333333,600)"/>
<path style=" stroke:none;fill-rule:nonzero;fill:rgb(100%,99.607843%,98.823529%);fill-opacity:1;" d="M 411.0625 199.527344 C 414.035156 210.925781 407.199219 222.578125 395.796875 225.546875 C 384.394531 228.519531 372.746094 221.683594 369.773438 210.28125 C 366.804688 198.878906 373.640625 187.230469 385.042969 184.257812 C 396.445312 181.289062 408.09375 188.125 411.0625 199.527344 "/>
<path style=" stroke:none;fill-rule:nonzero;fill:rgb(100%,99.607843%,98.823529%);fill-opacity:1;" d="M 616.890625 989.71875 C 619.863281 1001.121094 613.027344 1012.769531 601.625 1015.742188 C 590.222656 1018.710938 578.574219 1011.875 575.601562 1000.472656 C 572.632812 989.074219 579.46875 977.421875 590.871094 974.453125 C 602.269531 971.480469 613.921875 978.316406 616.890625 989.71875 "/>
<path style="fill:none;stroke-width:80;stroke-linecap:round;stroke-linejoin:miter;stroke:rgb(0%,0%,0%);stroke-opacity:1;stroke-miterlimit:10;" d="M -0.000164014 -479.999333 L 0.000164014 479.999333 " transform="matrix(0.96771,-0.252067,0.252067,0.96771,600,600)"/>
<path style=" stroke:none;fill-rule:nonzero;fill:rgb(100%,99.607843%,98.823529%);fill-opacity:1;" d="M 499.652344 130.121094 C 502.621094 141.523438 495.785156 153.175781 484.386719 156.144531 C 472.984375 159.113281 461.332031 152.277344 458.363281 140.875 C 455.394531 129.476562 462.230469 117.824219 473.628906 114.855469 C 485.03125 111.886719 496.683594 118.71875 499.652344 130.121094 "/>
<path style=" stroke:none;fill-rule:nonzero;fill:rgb(100%,99.607843%,98.823529%);fill-opacity:1;" d="M 741.636719 1059.125 C 744.605469 1070.523438 737.769531 1082.175781 726.371094 1085.144531 C 714.96875 1088.113281 703.316406 1081.28125 700.347656 1069.878906 C 697.378906 1058.476562 704.214844 1046.824219 715.613281 1043.855469 C 727.015625 1040.886719 738.667969 1047.722656 741.636719 1059.125 "/>
<path style="fill:none;stroke-width:80;stroke-linecap:round;stroke-linejoin:miter;stroke:rgb(0%,0%,0%);stroke-opacity:1;stroke-miterlimit:10;" d="M 0.00142819 -408.280779 L 0.00109189 408.281435 " transform="matrix(0.96771,-0.252067,0.252067,0.96771,706.666667,600)"/>
<path style=" stroke:none;fill-rule:nonzero;fill:rgb(100%,99.607843%,98.823529%);fill-opacity:1;" d="M 624.398438 199.527344 C 627.367188 210.925781 620.53125 222.578125 609.128906 225.546875 C 597.730469 228.519531 586.078125 221.683594 583.109375 210.28125 C 580.136719 198.878906 586.972656 187.230469 598.375 184.257812 C 609.777344 181.289062 621.425781 188.125 624.398438 199.527344 "/>
<path style=" stroke:none;fill-rule:nonzero;fill:rgb(100%,99.607843%,98.823529%);fill-opacity:1;" d="M 830.226562 989.71875 C 833.195312 1001.121094 826.359375 1012.769531 814.957031 1015.742188 C 803.554688 1018.710938 791.90625 1011.875 788.9375 1000.472656 C 785.964844 989.074219 792.800781 977.421875 804.203125 974.453125 C 815.605469 971.480469 827.253906 978.316406 830.226562 989.71875 "/>
<path style="fill:none;stroke-width:80;stroke-linecap:round;stroke-linejoin:miter;stroke:rgb(0%,0%,0%);stroke-opacity:1;stroke-miterlimit:10;" d="M 0.00225957 -339.085293 L -0.000999534 339.085621 " transform="matrix(0.96771,-0.252067,0.252067,0.96771,813.333333,600)"/>
<path style=" stroke:none;fill-rule:nonzero;fill:rgb(100%,99.607843%,98.823529%);fill-opacity:1;" d="M 748.507812 266.488281 C 751.476562 277.890625 744.640625 289.539062 733.238281 292.507812 C 721.835938 295.480469 710.1875 288.644531 707.21875 277.242188 C 704.246094 265.839844 711.082031 254.191406 722.484375 251.21875 C 733.886719 248.25 745.535156 255.085938 748.507812 266.488281 "/>
<path style=" stroke:none;fill-rule:nonzero;fill:rgb(100%,99.607843%,98.823529%);fill-opacity:1;" d="M 919.449219 922.757812 C 922.417969 934.160156 915.585938 945.808594 904.183594 948.78125 C 892.78125 951.75 881.128906 944.914062 878.160156 933.511719 C 875.191406 922.109375 882.027344 910.460938 893.429688 907.492188 C 904.828125 904.519531 916.480469 911.355469 919.449219 922.757812 "/>
<path style="fill:none;stroke-width:80;stroke-linecap:round;stroke-linejoin:miter;stroke:rgb(0%,0%,0%);stroke-opacity:1;stroke-miterlimit:10;" d="M -0.0011921 -274.847859 L 0.0011921 274.847859 " transform="matrix(0.96771,-0.252067,0.252067,0.96771,920,600)"/>
<path style=" stroke:none;fill-rule:nonzero;fill:rgb(100%,99.607843%,98.823529%);fill-opacity:1;" d="M 871.363281 328.648438 C 874.335938 340.050781 867.5 351.703125 856.097656 354.671875 C 844.695312 357.640625 833.046875 350.804688 830.074219 339.40625 C 827.105469 328.003906 833.941406 316.351562 845.34375 313.382812 C 856.746094 310.414062 868.394531 317.25 871.363281 328.648438 "/>
<path style=" stroke:none;fill-rule:nonzero;fill:rgb(100%,99.607843%,98.823529%);fill-opacity:1;" d="M 1009.925781 860.59375 C 1012.894531 871.996094 1006.058594 883.648438 994.65625 886.617188 C 983.253906 889.585938 971.605469 882.75 968.636719 871.351562 C 965.664062 859.949219 972.5 848.296875 983.902344 845.328125 C 995.304688 842.359375 1006.953125 849.195312 1009.925781 860.59375 "/>
<path style="fill:none;stroke-width:80;stroke-linecap:round;stroke-linejoin:miter;stroke:rgb(0%,0%,0%);stroke-opacity:1;stroke-miterlimit:10;" d="M -0.000882216 -217.830909 L -0.000377822 217.83058 " transform="matrix(0.96771,-0.252067,0.252067,0.96771,1026.666667,600)"/>
<path style=" stroke:none;fill-rule:nonzero;fill:rgb(100%,99.607843%,98.823529%);fill-opacity:1;" d="M 992.402344 383.824219 C 995.375 395.226562 988.539062 406.878906 977.136719 409.847656 C 965.734375 412.816406 954.085938 405.980469 951.113281 394.582031 C 948.144531 383.179688 954.980469 371.527344 966.382812 368.558594 C 977.78125 365.589844 989.433594 372.425781 992.402344 383.824219 "/>
<path style=" stroke:none;fill-rule:nonzero;fill:rgb(100%,99.607843%,98.823529%);fill-opacity:1;" d="M 1102.21875 805.417969 C 1105.1875 816.820312 1098.355469 828.472656 1086.953125 831.441406 C 1075.550781 834.410156 1063.898438 827.574219 1060.929688 816.175781 C 1057.960938 804.773438 1064.796875 793.121094 1076.195312 790.152344 C 1087.597656 787.183594 1099.25 794.019531 1102.21875 805.417969 "/>
</g>
</svg>
